<svg xmlns="http://www.w3.org/2000/svg" width="220" height="52" fill="none"><path fill="#fff" d="m200.88 7.212.091-.182h-15.958c-4.702 0-8.707.971-12.014 2.883-3.307 1.941-5.673 4.611-7.13 8.1-.91 2.215-1.183 4.217-.788 6.037.455 1.912 1.638 3.247 3.519 4.096 1.729.758 4.611 1.123 8.677 1.123h14.411l1.426-3.52h-8.101c-3.914 0-6.523-.515-7.827-1.517-1.426-1.092-1.274-3.61-.152-6.28 1.942-4.611 5.977-7.493 11.589-7.493h6.281l-1.457 3.458h4.794l2.791-6.674h-.152zM144.996 20.35l9.709-9.435 2.002 9.435zm-82.551.03 9.466-9.04 1.699 9.04zM153.886 7l-5.916.03-22.754 21.298 8.889-21.267h-9.739l-11.771 9.223-6.068 4.975h-.273l2.852-7.25-3.489-6.979h-9.8l-8.889 21.298L81.771 7.03H71.03L47.336 29.238h5.916l6.068-5.794h14.927l1.183 5.794h15.867l5.734-13.743c.303-.698.576-1.487.85-2.367.03.729.212 1.487.576 2.276l5.036 11.468h.85l14.441-11.407c.546-.425 1.365-1.214 2.457-2.337q-.819 1.547-1.183 2.367l-5.734 13.743h21.509999999999998l5.977-5.825h15.503l1.244 5.825h5.461L158.71 7zM49.976 24.02c1.911-1.82 3.307-3.823 4.247-6.037q2.184-5.19-.364-8.1C52.16 7.97 48.944 7 44.242 7H28.314l-1.456 3.489H37.84c5.613 0 7.22 2.791 5.28 7.403-1.123 2.67-2.094 5.127-4.43 6.219-2.124 1.001-4.339 1.305-8.252 1.305H25.37l3.792-8.98H24.37L19 29.237h14.441c4.066 0 7.251-.364 9.618-1.122 2.578-.85 4.884-2.185 6.917-4.096M158.072 51.416V47.41l3.156-5.37h-1.366l-1.335 2.579a37 37 0 0 0-.94 1.942h-.03a56 56 0 0 0-.941-1.942l-1.335-2.579h-1.365l2.973 5.4v3.975zm-9.708-8.404c.182-.06.607-.121 1.183-.121 1.274 0 2.154.546 2.154 1.76 0 1.061-.819 1.79-2.124 1.79h-1.243v-3.43zm-1.214 8.404h1.214V47.35h1.153c1.092.03 1.608.516 1.881 1.82.273 1.154.485 1.973.637 2.246h1.244c-.182-.364-.425-1.275-.728-2.58-.213-.97-.668-1.637-1.366-1.88v-.03c1.002-.334 1.76-1.153 1.76-2.397 0-.728-.273-1.365-.728-1.79-.576-.516-1.426-.759-2.7-.759-.819 0-1.699.061-2.336.182v9.254zm-9.283-9.375v5.522c0 2.912 1.456 4.004 3.367 4.004 2.033 0 3.55-1.183 3.55-4.065v-5.461h-1.214v5.552c0 2.063-.879 3.003-2.275 3.003-1.244 0-2.184-.88-2.184-3.003v-5.552zm-1.669 9.375-2.912-4.824 2.851-4.551h-1.395l-1.274 2.184c-.334.607-.577 1.032-.85 1.578h-.03c-.243-.485-.516-.97-.85-1.578l-1.244-2.184h-1.395l2.761 4.642-2.852 4.733h1.395l1.123-2.063c.485-.82.758-1.335 1.001-1.851h.03c.304.546.607 1.062 1.093 1.85l1.183 2.064zm-15.837-9.375v5.522c0 2.912 1.457 4.004 3.368 4.004 2.033 0 3.55-1.183 3.55-4.065v-5.461h-1.214v5.552c0 2.063-.88 3.003-2.275 3.003-1.244 0-2.185-.88-2.185-3.003v-5.552zm-6.31 9.375h5.218v-1.001h-4.005V42.07h-1.213zm-5.218-5.4h-3.641v-2.974h3.853v-1.001h-5.067v9.375h5.279v-1.001h-4.065v-3.368h3.641zM94.634 42.04v9.375h1.214v-4.4h4.52v4.4h1.214V42.04h-1.214v3.914h-4.52V42.04zm-5.4 9.375h1.213v-8.343H93.3V42.04h-6.947v1.032h2.852v8.343zm-6.432-5.4h-3.64v-2.974h3.852v-1.001h-5.066v9.375h5.279v-1.001h-4.065v-3.368h3.64zm-9.496 5.4 3.337-9.375H75.34l-1.578 4.642c-.425 1.213-.819 2.397-1.062 3.489h-.03c-.243-1.092-.607-2.245-1.001-3.49l-1.456-4.61h-1.305l3.064 9.374h1.335zm-7.008 0h1.213V42.04h-1.213zm-6.826 0h5.218v-1.001h-4.005V42.07h-1.213z"></path></svg>